<?xml version="1.0" encoding="utf-8"?>
<!-- Generator: Adobe Illustrator 22.0.1, SVG Export Plug-In . SVG Version: 6.00 Build 0)  -->
<svg version="1.1"
	 id="svg2" xmlns:cc="http://creativecommons.org/ns#" xmlns:dc="http://purl.org/dc/elements/1.1/" xmlns:rdf="http://www.w3.org/1999/02/22-rdf-syntax-ns#" xmlns:svg="http://www.w3.org/2000/svg"
	 xmlns="http://www.w3.org/2000/svg" xmlns:xlink="http://www.w3.org/1999/xlink" x="0px" y="0px" viewBox="0 0 1000 266.2"
	 style="enable-background:new 0 0 1000 266.2;" xml:space="preserve">
<style type="text/css">
	.st0{fill:#FFFFFF;}
</style>
<g>
	<g>
		<path class="st0" d="M331.2,204.2l-2.3,8.4h-7.7l10-32.8h9.7l10.2,32.8h-8l-2.5-8.4H331.2z M339.5,198.7l-2-7
			c-0.6-1.9-1.2-4.4-1.7-6.3h-0.1c-0.5,1.9-1,4.4-1.5,6.3l-1.9,7H339.5z"/>
		<path class="st0" d="M375.9,179.8v6.1h-12.4v26.7h-7.5v-32.8H375.9z"/>
		<path class="st0" d="M400,198.8h-12.1v7.8h13.5v6.1h-20.9v-32.8h20.2v6.1h-12.8v6.8H400L400,198.8L400,198.8z"/>
		<path class="st0" d="M414.5,179.8v12.6h12.2v-12.6h7.4v32.8h-7.4v-13.7h-12.2v13.7H407v-32.8H414.5z"/>
		<path class="st0" d="M447.6,186.1h-8.8v-6.2H464v6.2h-9v26.6h-7.5L447.6,186.1L447.6,186.1z"/>
		<path class="st0" d="M491.1,211.7c-1.4,0.7-4.4,1.5-8.4,1.5c-11.3,0-17.2-7.1-17.2-16.5c0-11.2,8-17.4,17.9-17.4
			c3.8,0,6.8,0.8,8.1,1.5l-1.5,5.9c-1.5-0.6-3.6-1.2-6.2-1.2c-5.9,0-10.5,3.6-10.5,10.9c0,6.6,3.9,10.7,10.5,10.7
			c2.2,0,4.7-0.5,6.2-1.1L491.1,211.7z"/>
		<path class="st0" d="M503.7,186.1H495v-6.2h25.2v6.2h-9v26.6h-7.5L503.7,186.1L503.7,186.1z"/>
		<path class="st0" d="M524.7,180.3c1.9-0.4,5.9-0.7,9.6-0.7c4.5,0,7.3,0.4,9.7,1.9c2.3,1.2,3.9,3.5,3.9,6.4s-1.7,5.7-5.4,7v0.1
			c3.8,1,6.5,3.8,6.5,8.1c0,3-1.4,5.3-3.4,7c-2.4,1.9-6.4,3-12.9,3c-3.7,0-6.4-0.2-8-0.5L524.7,180.3L524.7,180.3z M532.1,192.8h2.4
			c3.9,0,6-1.6,6-4c0-2.5-1.9-3.8-5.3-3.8c-1.6,0-2.5,0.1-3.2,0.2L532.1,192.8L532.1,192.8z M532.1,207.4c0.7,0.1,1.6,0.1,2.9,0.1
			c3.4,0,6.3-1.3,6.3-4.7c0-3.3-3-4.6-6.7-4.6h-2.5V207.4z"/>
		<path class="st0" d="M584.6,195.9c0,10.8-6.5,17.3-16.1,17.3c-9.7,0-15.4-7.4-15.4-16.7c0-9.8,6.3-17.2,16-17.2
			C579.1,179.3,584.6,186.8,584.6,195.9z M560.9,196.3c0,6.4,3,11,8,11c5,0,7.9-4.8,7.9-11.2c0-5.9-2.8-11-7.9-11
			C563.8,185.2,560.9,190,560.9,196.3z"/>
		<path class="st0" d="M608,179.8v12.6h12.2v-12.6h7.4v32.8h-7.4v-13.7H608v13.7h-7.4v-32.8H608z"/>
		<path class="st0" d="M654.2,198.8h-12.1v7.8h13.5v6.1h-20.9v-32.8H655v6.1h-12.8v6.8h12.1L654.2,198.8L654.2,198.8z"/>
		<path class="st0" d="M687.8,179.8v27l3.3,0.2l-0.3,14h-5.7l-0.4-8.3h-19.2l-0.4,8.3h-5.6l-0.3-14l2.7-0.2c1.3-2.3,2.4-4.7,3.1-7.3
			c0.9-3.3,1.3-6.9,1.3-10.9v-8.8H687.8z M673.2,190.2c0,3.8-0.5,7.5-1.5,10.8c-0.6,2-1.4,4-2.3,5.6h10.9v-20.7h-7.2L673.2,190.2
			L673.2,190.2z"/>
		<path class="st0" d="M695.9,180.3c1.9-0.4,5.9-0.7,9.6-0.7c4.5,0,7.3,0.4,9.7,1.9c2.3,1.2,3.9,3.5,3.9,6.4s-1.7,5.7-5.4,7v0.1
			c3.8,1,6.5,3.8,6.5,8.1c0,3-1.4,5.3-3.4,7c-2.4,1.9-6.4,3-12.9,3c-3.7,0-6.4-0.2-8-0.5L695.9,180.3L695.9,180.3z M703.2,192.8h2.4
			c3.9,0,6-1.6,6-4c0-2.5-1.9-3.8-5.3-3.8c-1.6,0-2.5,0.1-3.2,0.2L703.2,192.8L703.2,192.8z M703.2,207.4c0.7,0.1,1.6,0.1,2.9,0.1
			c3.4,0,6.3-1.3,6.3-4.7c0-3.3-3-4.6-6.7-4.6h-2.5V207.4z"/>
		<path class="st0" d="M732.7,179.8v9.7c0,5.3-0.1,10.5-0.4,14.9h0.2c1.7-3.8,3.9-8.2,5.8-11.7l7.1-12.9h7.6v32.8h-6.8v-9.7
			c0-5.1,0.1-9.5,0.5-13.8h-0.1c-1.5,3.9-3.6,8.2-5.6,11.7l-6.7,11.8h-8.5v-32.8H732.7z"/>
		<path class="st0" d="M766,179.8l8.1,13.6h0.7v-13.6h7.1v13.6h0.7l8.2-13.6h8.6l-11.2,14.7c4.4,0.5,6.6,3.7,8,8
			c1.1,3.4,1.9,7,3.4,10.2H792c-1-2.2-1.7-4.9-2.3-7.3c-1.1-3.5-2.6-6.5-6.6-6.5H782v13.7h-7.1v-13.7h-1.2c-4,0-5.5,3-6.6,6.5
			c-0.7,2.3-1.3,5.1-2.3,7.3h-7.5c1.5-3.2,2.4-6.8,3.5-10c1.4-4.2,3.5-7.4,7.9-8.2l-11.2-14.7L766,179.8L766,179.8z"/>
		<path class="st0" d="M810.3,179.8v9.7c0,5.3-0.1,10.5-0.4,14.9h0.2c1.7-3.8,3.9-8.2,5.8-11.7l7.1-12.9h7.6v32.8h-6.8v-9.7
			c0-5.1,0.1-9.5,0.5-13.8h-0.1c-1.5,3.9-3.6,8.2-5.5,11.7l-6.7,11.8h-8.5v-32.8H810.3z"/>
		<path class="st0" d="M865.5,200.1c-0.1-3.9-0.3-8.7-0.3-13.5h-0.1c-1,4.2-2.4,8.9-3.7,12.7l-4,12.8h-5.8l-3.5-12.7
			c-1.1-3.9-2.2-8.6-3-12.9H845c-0.2,4.4-0.3,9.5-0.6,13.6l-0.6,12.5h-6.9l2.1-32.8h9.9l3.2,11c1,3.8,2,7.9,2.8,11.7h0.1
			c0.9-3.8,2-8.1,3.1-11.8l3.5-10.9h9.7l1.8,32.8h-7.3L865.5,200.1z"/>
		<path class="st0" d="M909.3,195.9c0,10.8-6.5,17.3-16.1,17.3c-9.7,0-15.4-7.4-15.4-16.7c0-9.8,6.3-17.2,16-17.2
			C903.8,179.3,909.3,186.8,909.3,195.9z M885.6,196.3c0,6.4,3,11,8,11c5,0,7.9-4.8,7.9-11.2c0-5.9-2.8-11-7.9-11
			C888.5,185.2,885.6,190,885.6,196.3z"/>
		<path class="st0" d="M938.8,211.7c-1.4,0.7-4.4,1.5-8.4,1.5c-11.3,0-17.2-7.1-17.2-16.5c0-11.2,8-17.4,17.9-17.4
			c3.9,0,6.8,0.8,8.1,1.5l-1.5,5.9c-1.5-0.6-3.6-1.2-6.2-1.2c-5.9,0-10.5,3.6-10.5,10.9c0,6.6,3.9,10.7,10.5,10.7
			c2.2,0,4.7-0.5,6.2-1.1L938.8,211.7z"/>
		<path class="st0" d="M951.6,186.1h-8.8v-6.2H968v6.2h-9v26.6h-7.5L951.6,186.1L951.6,186.1z"/>
		<path class="st0" d="M979.4,179.8v9.7c0,5.3-0.1,10.5-0.4,14.9h0.2c1.7-3.8,3.9-8.2,5.8-11.7l7.1-12.9h7.6v32.8h-6.8v-9.7
			c0-5.1,0.1-9.5,0.5-13.8h-0.1c-1.5,3.9-3.6,8.2-5.6,11.7l-6.7,11.8h-8.5v-32.8H979.4z"/>
	</g>
	<g>
		<path class="st0" d="M110.4,139c17.3,0,29.8-12.4,29.8-29.4c0-6.5-3.4-12-6.2-14.8c-1.8-1.7-7.4-7-22.5-7c-2.7,0-5.9,0.1-8.9,0.2
			c-2.8,0.1-5.6,0.2-7.9,0.2c-1.4,0-3.4-0.1-5.8-0.1c-3.3-0.1-7.3-0.2-10.8-0.2c-1.1,0-4,0-4,2.5c0,1.1,0.6,2.5,3.4,2.5
			c1.7,0,3.5,0.1,4.2,0.3c2.9,0.6,3.6,1.6,3.8,5.2c0.2,3.6,0.2,6.8,0.2,24.4v20.3c0,10.5,0,19.6-0.6,24.4c-0.5,3.6-1,4.9-2.2,5.1
			c-0.8,0.2-2.1,0.4-3.8,0.4c-3,0-3.3,1.7-3.3,2.4c0,0.8,0.4,2.6,3.8,2.6c2.6,0,6.1-0.1,9.2-0.2c2.3-0.1,4.2-0.1,5.4-0.1
			c1.1,0,2.9,0,5.1,0.1c3.6,0.1,8.1,0.2,12.8,0.2c2.7,0,3.6-1.4,3.6-2.6c0-0.6-0.2-2.4-3.3-2.4c-1.7,0-4.1-0.2-5.7-0.4
			c-2.1-0.3-2.9-1.4-3.3-5c-0.6-4.9-0.6-14-0.6-24.5v-4.8C105,138.6,107.8,139,110.4,139z M103,96.1c0.5-0.1,1.6-0.4,3.9-0.4
			c2.3,0,6.6,0.5,10.6,4.1c5.7,5.1,6.3,11.7,6.3,16.2c0,10.9-8.2,17.6-14,17.6c-2.6,0-5.2-0.3-6.9-0.5V96.9
			C103,96.3,103,96.1,103,96.1z"/>
		<path class="st0" d="M193.1,178.3c-6.3,0-11.2-0.1-15.5-0.2l-4-0.1c-5.1-0.2-9.2-0.4-14-0.4l0,0c-1.3,0-3.8,0-6.5,0.1
			c-1.4,0-2.9,0.1-4.3,0.1c-1.3,0.1-2.6,0.1-3.8,0.1c-3.4,0-3.8-1.8-3.8-2.6c0-0.7,0.3-2.4,3.3-2.4c1.7,0,3-0.2,3.8-0.4
			c1.2-0.2,1.7-1.5,2.2-5.1c0.6-4.7,0.6-13.8,0.6-24.4v-20.3c0-17.6,0-20.7-0.2-24.4c-0.2-3.6-1-4.6-3.8-5.2
			c-0.8-0.2-2.1-0.3-3.5-0.3c-2.8,0-3.4-1.4-3.4-2.5c0-2.5,2.9-2.5,4-2.5c3.1,0,6.8,0.1,10,0.2c2.4,0.1,4.5,0.1,5.8,0.1
			c1.2,0,3.5-0.1,6.1-0.1c3.3-0.1,7.1-0.2,9.6-0.2c1,0,3.9,0,3.9,2.5c0,1.7-1.2,2.5-3.5,2.5c-1.2,0-2.9,0.1-4.3,0.3
			c-1.9,0.4-2.8,1.2-3.1,5.2c-0.2,3.7-0.2,6.8-0.2,24.4V143c0,12.8,0,22.1,1.9,23.7c1.6,1.4,4.2,2.2,13,2.2c6.1,0,10-0.2,12.4-2.8
			c1.1-1.2,2.4-4.2,2.6-6.1c0.2-2,1.1-3,2.7-3c2.4,0,2.4,2.4,2.4,3.4c0,1.4-0.8,10.2-1.8,13.7C200.8,177.8,199.1,178.3,193.1,178.3z
			"/>
	</g>
	<g>
		<path class="st0" d="M991.8,142.5c-7.6,0-13.7-0.1-18.7-0.3l-3.7-0.1c-3.2-0.1-5.8-0.2-8-0.2c-0.5,0-1.1,0-1.8,0
			c-1.1,0-2.5,0.1-3.9,0.1c-2.4,0.1-4.9,0.2-7,0.2c-2.8,0-3-1.6-3-2.2c0-1.1,0.8-2.1,2.7-2.1c1.4,0,2.5-0.1,3.3-0.3
			c1.3-0.3,1.8-1.3,2.2-4.3c0.5-4.1,0.5-11.8,0.5-20.8V95.3c0-14.9,0-17.6-0.1-20.7c-0.2-2.8-0.8-3.5-3.6-4.3
			c-0.6-0.2-2.2-0.3-3.7-0.3c-2.1,0-2.8-1.1-2.8-2.1c0-2,2.6-2,3.4-2c3.1,0,6.5,0.1,9.4,0.1c2.1,0,4,0.1,5.2,0.1h4.9
			c4.4,0,10.6,0,15.5,0c5.3,0,6.9,0,7.3-0.1c1.4-0.1,2.6-0.3,3.5-0.5l0.7-0.1c0.2,0,0.4-0.1,0.5-0.2c0.4-0.1,0.8-0.3,1.2-0.3
			c0.8,0,1.8,0.5,1.8,2c0,0.3-0.1,0.6-0.2,1.1c-0.2,0.9-0.5,2.3-0.6,5.3c0,0.4-0.1,1.2-0.2,2.1c-0.1,1.7-0.3,3.7-0.4,4.5
			c-0.2,0.7-0.6,2.5-2.2,2.5c-0.9,0-1.9-0.4-1.9-2.4c0-0.7-0.1-2.2-0.6-3.1c-0.7-1.4-1.2-2.6-5.8-3c-1.6-0.2-12.5-0.4-15.4-0.4v24
			c9.6,0,15.9-0.1,17.3-0.2c2.4-0.2,3.5-0.4,4.1-1.1c0.4-0.3,0.6-0.5,0.7-0.7c0.5-0.5,0.9-0.9,1.7-0.9c1.1,0,1.9,0.9,1.9,2.1
			c0,0.5-0.1,1.3-0.4,3.9l-0.4,3.4c-0.2,1.9-0.5,5.9-0.5,6.5c0,3-1.5,3.3-2.1,3.3c-1.2,0-2-0.7-2-1.9c0-0.3-0.1-0.7-0.1-1.1
			c0-0.7-0.1-1.5-0.2-2.3c-0.4-1.2-1.1-2.6-4.7-2.9c-1.7-0.2-12-0.4-15.3-0.5v7.8c0,1,0,2.4,0,4c0,3.8-0.1,8.5,0,10.5
			c0.2,5.5,2,7.1,12.6,7.1c1.6,0,6.4,0,9.1-1.2c2.1-1,3.1-2.7,3.8-6.5c0.2-0.8,0.5-2.4,2.2-2.4c0.5,0,0.9,0.2,1.2,0.5
			c0.5,0.5,0.8,1.4,0.8,2.9c0,2.3-0.8,9.1-1.4,11.2C997.4,142.5,995.6,142.5,991.8,142.5z"/>
		<path class="st0" d="M918.8,143.4c-1.7,0-3.3-0.8-4.9-2.4c-6-5.6-18.5-17.5-29.6-28.3c-7.1-6.8-14.1-14.2-18.7-19.1
			c-1.4-1.5-2.6-2.7-3.5-3.6l1.1,37.7c0.2,7.8,1.6,9.2,2.7,9.6c1.3,0.4,2.9,0.6,5,0.6c1.9,0,2.8,1.1,2.8,2.1c0,1.4-1.1,2.2-3.4,2.2
			c-4.3,0-7.9-0.1-10.3-0.3c-1.3-0.1-2.2-0.1-2.8-0.1c-0.3,0-0.9,0-1.7,0.1c-2.1,0.1-5.6,0.3-9.3,0.3c-1,0-3.4,0-3.4-2.2
			c0-1.2,1.2-2.1,2.7-2.1c1.7,0,3.3-0.2,4.4-0.4c1.8-0.5,2.2-2.4,2.3-10.8l0.9-58.2c0-2.6,1.1-4.4,2.8-4.4c1.6,0,3,1.4,4.8,3.2
			l2.1,2.1c4.6,4.8,17.1,17.5,29.4,29.5c3.8,3.7,9.5,9.5,14.2,14.3c2.5,2.6,4.8,4.9,6.3,6.3l-1-41.4c-0.1-6.2-1.2-7.1-2.8-7.7
			c-1.3-0.5-3.7-0.5-4.9-0.5c-2.5,0-2.7-1.6-2.7-2.1c0-2,2.5-2,3.6-2c3.2,0,6.5,0.1,9.1,0.2c1.6,0,3,0.1,3.9,0.1c0.4,0,1,0,1.9-0.1
			c1.8-0.1,4.7-0.2,8.1-0.2c1,0,3.4,0,3.4,2c0,1.1-0.9,2.1-2.8,2.1c-1,0-1.7,0-2.8,0.3c-1.9,0.6-2.8,1.4-2.9,7.1l-1.1,61.9
			C921.5,142.3,920.1,143.4,918.8,143.4z"/>
		<path class="st0" d="M833.7,142.3c-3.6,0-11,0-19.5-0.2h-0.6c-1.7-0.1-3.5-0.2-3.5-1.9c0-1.2,0.8-2,2.2-2.1c0,0,0.2-0.2,0-0.7
			l-7.8-19.7h-23.8l-5.4,13.2c-1,2.4-1.4,4.7-1.4,5.6c0,0.8,0,1.7,3,1.7h1.5c2.2,0,2.6,1.3,2.6,2.1s-0.3,2.2-2.7,2.2
			c-1.7,0-3.8-0.1-5.8-0.2c-2-0.1-3.9-0.2-5.5-0.2c-0.3,0-1,0-2,0.1c-2.3,0.1-6.1,0.3-9.8,0.3c-0.7,0-2.9,0-2.9-2.2
			c0-1.3,0.9-2.1,2.2-2.1c0.4,0,0.9,0,1.4-0.1c0.5,0,1.1-0.1,1.6-0.1c3.7-0.6,5.3-2.8,7.4-8l26.5-61.9c1-2.4,2-4.6,4-4.6
			c2.2,0,2.9,1.5,4,3.7c1.1,2.5,5.2,12.1,10,23.3c5.8,13.6,12.4,29.1,15.9,37.2c4,9,6.7,9.7,7.9,9.9c1.4,0.2,2.5,0.3,3.5,0.3
			c1.8,0,2.5,1.1,2.5,2.1C839.2,142.3,836.9,142.3,833.7,142.3z M801.4,109.9l-8.8-22.8l-9,22.8H801.4z"/>
		<path class="st0" d="M735.2,142.6c-6.4,0-11.3-0.1-15.7-0.2l-3.8-0.1c-4.9-0.2-9.1-0.4-14.1-0.4l0,0c-1.3,0-3.8,0-6.5,0.1
			c-1.4,0-2.8,0.1-4.2,0.1c-1.3,0.1-2.6,0.1-3.8,0.1c-2.9,0-3.4-1.4-3.4-2.3c0-0.8,0.4-2,2.9-2c1.7,0,3.1-0.2,3.9-0.4
			c1.5-0.3,2-2.1,2.5-5.4c0.6-4.8,0.6-13.9,0.6-24.4V87.4c0-17.6,0-20.7-0.2-24.4c-0.2-3.8-1.1-4.9-4.1-5.6
			c-0.8-0.2-2.1-0.3-3.6-0.3c-2.5,0-3-1.2-3-2.1c0-2.1,2.5-2.1,3.6-2.1c3.1,0,6.8,0.1,10,0.2c2.4,0.1,4.5,0.1,5.9,0.1
			c1.2,0,3.5-0.1,6.1-0.1c3.3-0.1,7.1-0.2,9.6-0.2c1.1,0,2.3,0.1,3,0.8c0.4,0.4,0.5,0.8,0.5,1.4c0,1.4-1.1,2.1-3.2,2.1
			c-1.2,0-3,0.1-4.3,0.3c-2.1,0.4-3.1,1.3-3.4,5.6c-0.2,3.7-0.2,6.8-0.2,24.4v20.3c0,13.4,0,22.2,2,24c1.6,1.5,4.3,2.3,13.2,2.3
			c6.2,0,10.2-0.2,12.7-2.9c1.2-1.3,2.5-4.3,2.7-6.3c0.2-1.8,1-2.7,2.4-2.7c2,0,2,2,2,3.1c0,1.4-0.8,10.1-1.8,13.6
			C742.6,142,741.3,142.6,735.2,142.6z"/>
		<path class="st0" d="M635.5,142.3c-3.1,0-4.9,0-7.2-0.2c-5.7-0.5-9.3-2.7-13.8-6.6c-4.4-3.8-22.1-24.4-25.8-29v6.3
			c0,9,0,16.7,0.2,21c0.2,3,1.3,3.8,2.8,4.1c1.3,0.2,3.6,0.3,4.8,0.3c1.3,0,2.5,1,2.5,2.1c0,1-0.8,2.2-3.1,2.2
			c-3.4,0-7.4-0.1-10.6-0.2c-2.1-0.1-3.9-0.1-4.9-0.1c-1,0-2.7,0.1-4.7,0.1c-2.7,0.1-5.8,0.2-8.1,0.2c-2.8,0-3-1.6-3-2.2
			c0-1.1,0.8-2.1,2.7-2.1c1.4,0,2.5-0.1,3.3-0.3c1.3-0.3,1.8-1.3,2.2-4.3c0.5-4.1,0.5-11.8,0.5-20.8V95.3c0-14.9,0-17.6-0.1-20.7
			c-0.2-2.8-0.8-3.5-3.6-4.3c-0.6-0.2-2.2-0.3-3.8-0.3c-2.1,0-2.8-1.1-2.8-2.1c0-2,2.6-2,3.4-2c3.2,0,6.8,0.1,9.6,0.1
			c1.9,0,3.6,0.1,4.6,0.1c1.1,0,3.2,0,5.5-0.1c2.7-0.1,5.7-0.1,7.5-0.1c0.9,0,3.3,0,3.3,2c0,1.1-0.8,2.1-2.5,2.1
			c-0.9,0-1.4,0.1-2.6,0.3c-2.1,0.3-2.8,1-3,4.3c-0.1,3.1-0.1,5.8-0.1,20.7v2.2c1.9-2,4.9-5,8-8.1c5-5,10.1-10.2,11.8-12l0.7-0.7
			c2.2-2.5,4.1-4.6,4.1-5.8c0-0.8-0.3-0.8-0.6-0.9c-0.7-0.2-2.2-0.6-2.2-2.1c0-0.8,0.4-2,2.7-2c1,0,2.8,0.1,4.7,0.1
			c2.1,0.1,4.3,0.1,5.8,0.1c1.6,0,3.7-0.1,5.9-0.1c2.2-0.1,4.4-0.1,6-0.1c2.5,0,2.8,1.4,2.8,2c0,1-0.7,2.1-2.6,2.1
			c-1.3,0-3.7,0.4-5.5,1.1c-3.3,1.2-6.4,3.3-10.4,7c-3.5,3.2-16.8,15.8-20.8,20.1c4.7,5.7,23.1,24.8,26.8,28.3
			c0.8,0.7,1.6,1.5,2.4,2.2c3.5,3.3,6.9,6.4,11.1,8.1c2.8,1.2,4.7,1.2,5.8,1.2c1.4,0,2.5,0.9,2.5,2.1c0,2.2-2.6,2.2-3.5,2.2H635.5z"
			/>
		<path class="st0" d="M545.6,142.3c-5.6,0-8.6-0.6-11.6-2.1c-4.4-2.2-8.1-6.5-14.2-14.7c-2.3-3-4.6-6.4-6.5-9.1
			c-1.4-2-2.5-3.7-3.1-4.3c-0.2-0.2-0.5-0.3-1-0.3l-8.8-0.2v1.1c0,7.3,0.1,16.2,0.6,20.8c0.4,3,0.8,3.9,3,4.2
			c1.4,0.2,3.5,0.3,4.8,0.3c1.5,0,2.4,1.1,2.4,2.1c0,0.5-0.2,2.2-3.2,2.2c-3.9,0-9-0.2-12.3-0.3c-1.7-0.1-3-0.1-3.5-0.1
			c-0.8,0-2.3,0.1-4.2,0.1c-2.7,0.1-5.9,0.2-8.3,0.2c-2.8,0-3-1.6-3-2.2c0-1,0.7-2.1,2.7-2.1c1.4,0,2.5-0.1,3.3-0.3
			c1.2-0.3,1.8-1,2.2-4.3c0.5-4.1,0.5-11.8,0.5-20.8V95.3c0-14.9,0-17.6-0.1-20.7c-0.2-2.8-0.8-3.5-3.6-4.3
			c-0.6-0.2-2.2-0.3-3.8-0.3c-2.1,0-2.8-1.1-2.8-2.1c0-2,2.6-2,3.4-2c3.3,0,7,0.1,9.8,0.2c1.8,0,3.2,0.1,4,0.1
			c1.8,0,5.1-0.1,8.3-0.1c3-0.1,6-0.1,7.5-0.1c6.2,0,14.1,0.5,19.9,4.3c2.8,1.9,7.6,7.1,7.6,14.4c0,7.4-4.1,14-13.6,21.9l0.7,0.9
			c8.4,10.4,15,18.5,20.8,24.3c5.1,5.1,8.4,5.8,10,6.1l0.3,0.1c0.9,0.2,1.4,0.2,2.2,0.2c1.5,0,2.4,1.1,2.4,2.1c0,1.4-1,2.2-3.1,2.2
			h-9.7V142.3z M506.2,73.1c-2.6,0-4.9,0.1-5.8,0.3c0,0-0.1,0.1-0.1,0.3v29.2c0,0.5,0.1,0.6,0.1,0.6s0,0.1,0.3,0.2
			c2.3,0.7,5.5,0.8,7.2,0.8c4,0,5-0.3,6.5-1.4c2.8-2,6.1-5.9,6.1-13.7C520.6,77.4,512.9,73.1,506.2,73.1z"/>
		<path class="st0" d="M466.2,142.3c-3.6,0-11,0-19.5-0.2h-0.6c-1.7-0.1-3.5-0.2-3.5-1.9c0-1.2,0.8-2,2.2-2.1c0.1-0.3,0.1-0.5,0-0.7
			l-7.8-19.8h-23.8l-5.4,13.2c-1,2.4-1.4,4.7-1.4,5.6c0,0.8,0,1.7,3,1.7h1.5c2.3,0,2.6,1.3,2.6,2.1c0,0.8-0.3,2.2-2.7,2.2
			c-1.7,0-3.8-0.1-5.8-0.2c-2-0.1-3.9-0.2-5.5-0.2c-0.3,0-1,0-2,0.1c-2.3,0.1-6.1,0.3-9.8,0.3c-0.7,0-2.9,0-2.9-2.2
			c0-1.3,0.9-2.1,2.2-2.1c0.4,0,0.9,0,1.4-0.1c0.5,0,1.1-0.1,1.6-0.1c3.7-0.6,5.3-2.8,7.4-8L424,68.2c1.2-2.9,2.3-4.6,4-4.6
			c2.2,0,2.9,1.5,4,3.7c1.2,2.6,5.6,13,10.7,24.9c5.6,13,11.8,27.8,15.2,35.6c4,9,6.7,9.7,7.9,9.9c1.4,0.2,2.5,0.3,3.6,0.3
			c1.8,0,2.5,1.1,2.5,2.1C471.7,142.3,469.4,142.3,466.2,142.3z M433.9,109.9l-8.8-22.8l-9,22.8H433.9z"/>
		<path class="st0" d="M356,103.5c17.2,0,29.6-12.3,29.6-29.2c0-6.5-3.3-12-6.2-14.7c-1.8-1.7-7.4-6.9-22.3-6.9
			c-2.7,0-5.8,0.1-8.8,0.2c-2.8,0.1-5.5,0.2-7.8,0.2c-1.3,0-3.4-0.1-5.8-0.1c-3.3-0.1-7.2-0.2-10.7-0.2c-1.1,0-4,0-4,2.5
			c0,1.1,0.6,2.5,3.4,2.5c1.7,0,3.4,0.1,4.2,0.3c2.9,0.6,3.6,1.6,3.8,5.2c0.2,3.6,0.2,6.8,0.2,24.2v20.2c0,10.5,0,19.5-0.6,24.2
			c-0.5,3.6-1,4.9-2.2,5.1c-0.8,0.2-2.1,0.4-3.8,0.4c-3,0-3.3,1.6-3.3,2.4c0,0.8,0.4,2.6,3.7,2.6c2.6,0,6.1-0.1,9.1-0.2
			c2.2-0.1,4.2-0.1,5.3-0.1s2.9,0,5.1,0.1c3.6,0.1,8,0.2,12.7,0.2c2.7,0,3.6-1.3,3.6-2.6c0-0.6-0.2-2.4-3.3-2.4
			c-1.7,0-4.1-0.2-5.6-0.4c-2.1-0.3-2.8-1.4-3.2-4.9c-0.6-4.8-0.6-13.9-0.6-24.3V103C350.7,103.2,353.5,103.5,356,103.5z M348.7,61
			c0.5-0.1,1.6-0.4,3.9-0.4c2.2,0,6.6,0.5,10.5,4.1c5.6,5,6.3,11.6,6.3,16.1c0,10.8-8.1,17.5-13.9,17.5c-2.6,0-5.2-0.3-6.8-0.5v-36
			C348.7,61.3,348.8,61.1,348.7,61z"/>
	</g>
	<g>
		<path class="st0" d="M134.3,25.3L134.3,25.3c11-5.3,18.2-9.3,15.2-24.3c-0.3,0,0,0-0.3,0c-3.1,6.2-9.7,9.2-13,12.8
			c-1.8,2-4.2,5.8-6.4,8.3c-0.5,0.5-1.2,0.9-1.9,0.9c-1.3,0.1-2.7,0.1-3.9,0.1h-2c-1.5,0-2.7,0-3.7,0.1l-1.9,0.2l0.5,4.6l1.9-0.2
			c0.5-0.1,1.2-0.1,2.1-0.1c1.5,0,3.6,0.1,6.1,0.2c1,0.1,1.8,0.5,2.5,1.2c5.7,6.5,14.6,10.7,16.4,17c0.1,0.2,0.2,0.1,0.2-0.1
			C149.4,31.5,141.6,28.1,134.3,25.3z"/>
		<path class="st0" d="M117.4,26.4L117.4,26.4c10-7,16.5-12,11.2-26.4c-0.3,0,0,0-0.3,0c-2.1,6.6-8.1,10.6-10.8,14.6
			c-1.5,2.2-3.2,6.4-5,9.2c-0.4,0.6-1,1-1.8,1.2c-1.3,0.3-2.6,0.5-3.8,0.7l-2,0.3c-1.5,0.2-2.6,0.4-3.6,0.7l-1.9,0.5l1.3,4.6
			l1.9-0.5c0.5-0.1,1.2-0.3,2.1-0.4c1.5-0.2,3.6-0.5,6-0.7c1-0.1,1.9,0.2,2.6,0.8c6.7,5.5,16.1,8.3,18.9,14.2
			c0.1,0.2,0.2,0.1,0.2-0.2C133.3,30.2,125.1,28,117.4,26.4z"/>
		<path class="st0" d="M100.9,30.2L100.9,30.2c8.8-8.4,14.4-14.5,7-27.8c-0.3,0,0,0-0.3,0.1c-1,6.8-6.4,11.8-8.4,16.1
			c-1.1,2.4-2.2,6.8-3.5,9.9c-0.3,0.7-0.9,1.2-1.6,1.5c-1.2,0.5-2.5,0.9-3.7,1.3l-1.9,0.6c-1.4,0.5-2.5,0.8-3.5,1.3L83.2,34l2,4.4
			l1.8-0.8c0.5-0.2,1.1-0.5,2-0.7c1.4-0.5,3.4-1,5.9-1.7c0.9-0.2,1.9-0.1,2.7,0.4c7.4,4.4,17.2,5.7,20.9,11.1
			c0.1,0.2,0.2,0.1,0.2-0.2C117.2,31.4,108.7,30.6,100.9,30.2z"/>
		<path class="st0" d="M85.2,36.5L85.2,36.5c7.4-9.7,12-16.5,2.5-28.6c-0.2,0.1,0,0-0.3,0.1c0.1,6.9-4.5,12.6-5.8,17.3
			c-0.7,2.6-1.1,7.1-2,10.3c-0.2,0.7-0.7,1.3-1.3,1.7c-1.1,0.7-2.3,1.3-3.4,1.9L73.1,40c-1.3,0.7-2.4,1.2-3.2,1.8l-1.6,1.1l2.6,4
			l1.6-1.1c0.4-0.3,1-0.6,1.9-1c1.3-0.7,3.2-1.6,5.5-2.6c0.9-0.4,1.9-0.4,2.8,0c8,3.2,17.9,2.9,22.4,7.7c0.1,0.1,0.2,0,0.1-0.2
			C101.5,35.2,93,35.6,85.2,36.5z"/>
		<path class="st0" d="M68.8,219.6L68.8,219.6c-12-2.1-20.2-3.1-26.6,10.7c0.2,0.2,0,0,0.2,0.2c6.1-3.2,13.3-1.8,18-2.7
			c2.6-0.5,6.8-2.3,10-2.9c0.7-0.1,1.5,0,2.1,0.4c1.1,0.7,2.2,1.5,3.2,2.2l1.6,1.2c1.2,0.9,2.2,1.5,3.1,2.1l1.7,1l2.4-4.2l-1.7-1
			c-0.4-0.2-1-0.6-1.8-1.2c-1.2-0.9-2.9-2.2-4.8-3.8c-0.7-0.6-1.2-1.5-1.3-2.5c-0.8-8.6-5.5-17.2-3.3-23.4c0.1-0.2-0.1-0.2-0.2,0
			C60.2,205.8,64.5,213.1,68.8,219.6z"/>
		<path class="st0" d="M83,228.6L83,228.6c-12.2-0.2-20.4,0-24.6,14.8c0.2,0.1,0,0,0.2,0.2c5.6-4.1,12.8-3.8,17.4-5.5
			c2.5-0.9,6.4-3.3,9.5-4.5c0.7-0.3,1.5-0.2,2.1,0.1c1.2,0.5,2.4,1.1,3.5,1.7l1.8,0.9c1.3,0.7,2.4,1.2,3.3,1.6l1.8,0.7l1.7-4.5
			l-1.8-0.7c-0.5-0.2-1.1-0.5-1.9-0.9c-1.3-0.7-3.2-1.7-5.3-3c-0.8-0.5-1.4-1.3-1.6-2.2c-2.2-8.4-8.2-16.2-6.9-22.6
			c0-0.2-0.1-0.2-0.2,0C72.4,216.2,77.8,222.8,83,228.6z"/>
		<path class="st0" d="M98.6,235.3L98.6,235.3c-12.1,1.7-20.2,3.2-22,18.4c0.2,0.1,0,0,0.3,0.1c4.9-4.9,12.1-5.8,16.3-8.1
			c2.3-1.3,5.8-4.3,8.7-5.9c0.6-0.4,1.4-0.5,2.1-0.3c1.3,0.3,2.6,0.7,3.7,1.1l1.9,0.6c1.4,0.5,2.5,0.8,3.5,1l1.9,0.4l1-4.7l-1.9-0.4
			c-0.5-0.1-1.2-0.3-2-0.6c-1.4-0.5-3.4-1.2-5.7-2.1c-0.9-0.3-1.6-1.1-2-1.9C101,225,93.8,218.2,94,211.7c0-0.2-0.1-0.1-0.2,0.1
			C86.1,224.7,92.5,230.3,98.6,235.3z"/>
		<path class="st0" d="M115,239.4L115,239.4c-11.7,3.5-19.4,6.4-18.8,21.7c0.2,0.1,0,0,0.3,0.1c4-5.6,11-7.6,14.8-10.6
			c2.1-1.7,5-5.1,7.6-7.2c0.6-0.5,1.3-0.7,2-0.6c1.3,0.1,2.7,0.3,3.9,0.5l2,0.3c1.5,0.2,2.6,0.4,3.7,0.4l1.9,0.1l0.2-4.8l-1.9-0.1
			c-0.5,0-1.2-0.1-2.1-0.3c-1.5-0.2-3.5-0.6-6-1.2c-0.9-0.2-1.7-0.8-2.2-1.6c-4.6-7.3-12.8-12.9-13.6-19.4c0-0.2-0.1-0.1-0.2,0.1
			C101,230.9,108.2,235.5,115,239.4z"/>
		<path class="st0" d="M131.9,240.9L131.9,240.9c-11,5.3-18.2,9.3-15.2,24.3c0.3,0,0,0,0.3,0c3.1-6.2,9.7-9.2,13-12.8
			c1.8-2,4.2-5.8,6.4-8.3c0.5-0.5,1.2-0.9,1.9-0.9c1.3-0.1,2.7-0.1,3.9-0.1h2c1.5,0,2.7,0,3.7-0.1l1.9-0.2l-0.5-4.8l-1.9,0.2
			c-0.5,0.1-1.2,0.1-2.1,0.1c-1.5,0-3.6-0.1-6.1-0.2c-1-0.1-1.8-0.5-2.5-1.2c-5.7-6.5-14.6-10.7-16.4-17c-0.1-0.2-0.2-0.1-0.2,0.1
			C116.7,234.7,124.6,238.1,131.9,240.9z"/>
		<path class="st0" d="M148.8,239.8L148.8,239.8c-10,7-16.5,12-11.2,26.4c0.3,0,0,0,0.3,0c2.1-6.6,8.1-10.6,10.8-14.6
			c1.5-2.2,3.2-6.4,5-9.2c0.4-0.6,1-1,1.8-1.2c1.3-0.3,2.6-0.5,3.8-0.7l2-0.3c1.5-0.2,2.6-0.4,3.6-0.7l1.9-0.5l-1.3-4.6l-1.9,0.5
			c-0.5,0.1-1.2,0.3-2.1,0.4c-1.5,0.2-3.6,0.5-6,0.7c-1,0.1-1.9-0.2-2.6-0.8c-6.7-5.5-16.1-8.3-18.9-14.2c-0.1-0.2-0.2-0.1-0.2,0.2
			C132.9,236,141.1,238.2,148.8,239.8z"/>
		<path class="st0" d="M165.3,236L165.3,236c-8.8,8.4-14.4,14.5-7,27.8c0.3,0,0,0,0.3-0.1c1-6.8,6.4-11.8,8.4-16.1
			c1.1-2.4,2.2-6.8,3.5-9.9c0.3-0.7,0.9-1.2,1.6-1.5c1.2-0.5,2.5-0.9,3.7-1.3l1.9-0.6c1.4-0.5,2.5-0.8,3.5-1.3l1.8-0.8l-2-4.4
			l-1.8,0.8c-0.5,0.2-1.1,0.5-2,0.7c-1.4,0.5-3.4,1-5.9,1.7c-0.9,0.2-1.9,0.1-2.7-0.4c-7.4-4.4-17.2-5.7-20.9-11.1
			c-0.1-0.2-0.2-0.1-0.2,0.2C149,234.8,157.5,235.6,165.3,236z"/>
		<path class="st0" d="M181,229.7L181,229.7c-7.4,9.7-12,16.5-2.5,28.6c0.2-0.1,0,0,0.3-0.1c-0.1-6.9,4.5-12.6,5.8-17.3
			c0.7-2.6,1.1-7.1,1.9-10.3c0.2-0.7,0.7-1.3,1.3-1.7c1.1-0.7,2.3-1.3,3.4-1.9l1.8-0.9c1.3-0.7,2.4-1.2,3.2-1.8l1.6-1.1l-2.6-4
			l-1.6,1.1c-0.4,0.3-1,0.6-1.9,1c-1.3,0.7-3.2,1.6-5.5,2.6c-0.9,0.4-1.9,0.4-2.8,0c-8-3.2-17.9-2.9-22.4-7.7
			c-0.1-0.1-0.2,0-0.1,0.2C164.7,231,173.2,230.5,181,229.7z"/>
		<path class="st0" d="M195.6,221L195.6,221c-5.7,10.7-9.2,18.2,2,28.6c0.2-0.1,0,0,0.3-0.1c-1.1-6.8,2.4-13.2,3-17.9
			c0.3-2.7-0.1-7.2,0.3-10.5c0.1-0.7,0.5-1.4,1-1.9c1-0.8,2.1-1.7,3.1-2.4l1.6-1.2c1.2-0.9,2.1-1.6,2.9-2.3l1.5-1.3l-3.2-3.6
			l-1.4,1.3c-0.4,0.3-0.9,0.8-1.7,1.3c-1.2,0.9-3,2.1-5.1,3.4c-0.8,0.5-1.8,0.7-2.7,0.4c-8.4-1.9-18.1-0.1-23.3-4.1
			c-0.1-0.1-0.2,0-0.1,0.2C179.6,224.9,188,223,195.6,221z"/>
		<path class="st0" d="M208.5,210.2L208.5,210.2c-4,11.5-6.3,19.4,6.4,28c0.2-0.2,0,0,0.2-0.2c-2.2-6.6,0.3-13.4,0.2-18.2
			c-0.1-2.7-1.2-7.1-1.3-10.4c0-0.7,0.2-1.5,0.7-2c0.9-1,1.8-2,2.7-2.8l1.4-1.4c1-1,1.9-1.9,2.5-2.7l1.2-1.5l-3.8-3l-1.2,1.5
			c-0.3,0.4-0.8,0.9-1.4,1.6c-1.1,1.1-2.6,2.5-4.5,4.1c-0.7,0.6-1.7,0.9-2.6,0.9c-8.6-0.5-17.9,2.8-23.6-0.4c-0.2-0.1-0.2,0-0.1,0.2
			C193.4,216.5,201.4,213.5,208.5,210.2z"/>
		<path class="st0" d="M219.6,197.5L219.6,197.5c-2.1,12-3.1,20.2,10.7,26.6c0.2-0.2,0,0,0.2-0.2c-3.2-6.1-1.8-13.3-2.7-18
			c-0.5-2.6-2.3-6.8-2.9-10c-0.1-0.7,0-1.5,0.4-2.1c0.7-1.1,1.5-2.2,2.2-3.2l1.2-1.6c0.9-1.2,1.5-2.2,2.1-3.1l1-1.7l-4.2-2.4l-1,1.7
			c-0.2,0.4-0.6,1-1.2,1.8c-0.9,1.2-2.2,2.9-3.8,4.8c-0.6,0.7-1.5,1.2-2.5,1.3c-8.6,0.8-17.2,5.5-23.4,3.3c-0.2-0.1-0.2,0.1,0,0.2
			C205.8,206.1,213.1,201.8,219.6,197.5z"/>
		<path class="st0" d="M228.6,183.1L228.6,183.1c-0.2,12.2,0,20.4,14.8,24.6c0.1-0.2,0,0,0.2-0.2c-4.1-5.6-3.8-12.8-5.5-17.4
			c-0.9-2.5-3.3-6.4-4.5-9.5c-0.3-0.7-0.2-1.5,0.1-2.1c0.5-1.2,1.1-2.4,1.7-3.5l0.9-1.8c0.7-1.3,1.2-2.4,1.6-3.3l0.7-1.8l-4.5-1.7
			l-0.7,1.8c-0.2,0.5-0.5,1.1-0.9,1.9c-0.7,1.3-1.7,3.2-3,5.3c-0.5,0.8-1.3,1.4-2.2,1.6c-8.4,2.2-16.2,8.2-22.6,6.9
			c-0.2,0-0.2,0.1,0,0.2C216.2,193.8,222.8,188.4,228.6,183.1z"/>
		<path class="st0" d="M235.3,167.6L235.3,167.6c1.7,12.1,3.2,20.2,18.4,22c0.1-0.2,0,0,0.1-0.3c-4.9-4.9-5.8-12.1-8.1-16.3
			c-1.3-2.3-4.3-5.8-5.9-8.7c-0.4-0.6-0.5-1.4-0.3-2.1c0.3-1.3,0.7-2.6,1.1-3.7l0.6-1.9c0.5-1.4,0.8-2.5,1-3.5l0.4-1.9l-4.7-1
			l-0.4,1.9c-0.1,0.5-0.3,1.2-0.6,2c-0.5,1.4-1.2,3.4-2.1,5.7c-0.3,0.9-1.1,1.6-1.9,2c-7.9,3.4-14.7,10.6-21.3,10.4
			c-0.2,0-0.1,0.1,0.1,0.2C224.7,180.1,230.3,173.7,235.3,167.6z"/>
		<path class="st0" d="M239.4,151.2L239.4,151.2c3.5,11.7,6.4,19.4,21.7,18.8c0.1-0.2,0,0,0.1-0.3c-5.6-4-7.6-11-10.6-14.8
			c-1.7-2.1-5.1-5-7.2-7.6c-0.5-0.6-0.7-1.3-0.6-2c0.1-1.3,0.3-2.7,0.5-3.9l0.3-2c0.2-1.5,0.4-2.6,0.4-3.7l0.1-1.9l-4.8-0.2
			l-0.1,1.9c0,0.5-0.1,1.2-0.3,2.1c-0.2,1.5-0.6,3.5-1.2,6c-0.2,0.9-0.8,1.7-1.6,2.2c-7.3,4.6-12.9,12.8-19.4,13.6
			c-0.2,0-0.1,0.1,0.1,0.2C230.9,165.1,235.5,158,239.4,151.2z"/>
		<path class="st0" d="M240.9,134.3L240.9,134.3c5.3,11,9.3,18.2,24.3,15.2c0-0.3,0,0,0-0.3c-6.2-3.1-9.2-9.7-12.8-13
			c-2-1.8-5.8-4.2-8.3-6.4c-0.5-0.5-0.9-1.2-0.9-1.9c-0.1-1.3-0.1-2.7-0.1-3.9v-2c0-1.5,0-2.7-0.1-3.7l-0.2-1.9l-4.8,0.5l0.2,1.9
			c0.1,0.5,0.1,1.2,0.1,2.1c0,1.5-0.1,3.6-0.2,6.1c-0.1,1-0.5,1.8-1.2,2.5c-6.5,5.7-10.7,14.6-17,16.4c-0.2,0.1-0.1,0.2,0.1,0.2
			C234.7,149.4,238.1,141.6,240.9,134.3z"/>
		<path class="st0" d="M239.8,117.4L239.8,117.4c7,10,12,16.5,26.4,11.2c0-0.3,0,0,0-0.3c-6.6-2.1-10.6-8.1-14.6-10.8
			c-2.2-1.5-6.4-3.2-9.2-5c-0.6-0.4-1-1-1.2-1.8c-0.3-1.3-0.5-2.6-0.7-3.8l-0.3-2c-0.2-1.5-0.4-2.6-0.7-3.6l-0.5-1.9l-4.6,1.3
			l0.5,1.9c0.1,0.5,0.3,1.2,0.4,2.1c0.2,1.5,0.5,3.6,0.7,6c0.1,1-0.2,1.9-0.8,2.6c-5.5,6.7-8.3,16.1-14.2,18.9
			c-0.2,0.1-0.1,0.2,0.2,0.2C236,133.3,238.2,125.1,239.8,117.4z"/>
		<path class="st0" d="M236,100.9L236,100.9c8.4,8.8,14.5,14.4,27.8,7c0-0.3,0,0,0-0.3c-6.8-1-11.8-6.4-16.1-8.4
			c-2.4-1.1-6.8-2.2-9.9-3.5c-0.7-0.3-1.2-0.9-1.5-1.6c-0.5-1.2-0.9-2.5-1.3-3.7l-0.6-1.9c-0.5-1.4-0.8-2.5-1.3-3.5l-0.8-1.8l-4.4,2
			l0.9,1.7c0.2,0.5,0.5,1.1,0.7,2c0.5,1.4,1,3.4,1.7,5.9c0.2,0.9,0.1,1.9-0.4,2.7c-4.4,7.4-5.7,17.2-11.1,20.9
			c-0.2,0.1-0.1,0.2,0.2,0.2C234.8,117.2,235.6,108.7,236,100.9z"/>
		<path class="st0" d="M229.7,85.2L229.7,85.2c9.7,7.4,16.5,12,28.6,2.5c-0.1-0.2,0,0-0.1-0.3c-6.9,0.1-12.6-4.5-17.3-5.8
			c-2.6-0.7-7.1-1.1-10.3-2c-0.7-0.2-1.3-0.7-1.7-1.3c-0.7-1.1-1.3-2.3-1.9-3.4l-0.9-1.8c-0.7-1.3-1.2-2.4-1.8-3.2l-1.1-1.6l-4,2.6
			l1.1,1.6c0.3,0.4,0.6,1,1,1.9c0.7,1.3,1.6,3.2,2.6,5.5c0.4,0.9,0.4,1.9,0,2.8c-3.2,8-2.9,17.9-7.7,22.4c-0.1,0.1,0,0.2,0.2,0.1
			C231,101.5,230.5,93,229.7,85.2z"/>
		<path class="st0" d="M221,70.7L221,70.7c10.7,5.7,18.2,9.2,28.6-2c-0.1-0.2,0,0-0.1-0.3c-6.8,1.1-13.2-2.4-17.9-3
			c-2.7-0.3-7.2,0.1-10.5-0.3c-0.7-0.1-1.4-0.5-1.9-1c-0.8-1-1.7-2.1-2.4-3.1l-1.2-1.6c-0.9-1.2-1.6-2.1-2.3-2.9l-1.3-1.5l-3.6,3.2
			l1.3,1.4c0.3,0.4,0.8,0.9,1.3,1.7c0.9,1.2,2.1,3,3.4,5.1c0.5,0.8,0.7,1.8,0.4,2.7c-1.9,8.4-0.1,18.1-4.1,23.3
			c-0.1,0.1,0,0.2,0.2,0.1C224.9,86.5,223,78.2,221,70.7z"/>
		<path class="st0" d="M210.2,57.7L210.2,57.7c11.5,4,19.4,6.3,28-6.4c-0.2-0.2,0,0-0.2-0.2c-6.6,2.2-13.4-0.3-18.2-0.2
			c-2.7,0.1-7.1,1.2-10.4,1.3c-0.7,0-1.5-0.2-2-0.7c-1-0.9-2-1.8-2.8-2.7l-1.4-1.4c-1-1-1.9-1.9-2.7-2.5l-1.5-1.2l-3,3.8l1.5,1.2
			c0.4,0.3,0.9,0.8,1.6,1.4c1.1,1.1,2.5,2.6,4.1,4.5c0.6,0.7,0.9,1.7,0.9,2.6c-0.5,8.6,2.8,17.9-0.4,23.6c-0.1,0.2,0,0.2,0.2,0.1
			C216.5,72.7,213.5,64.9,210.2,57.7z"/>
		<path class="st0" d="M197.5,46.6L197.5,46.6c12,2.1,20.2,3.1,26.6-10.7c-0.2-0.2,0,0-0.2-0.2c-6.1,3.2-13.3,1.8-18,2.7
			c-2.6,0.5-6.8,2.3-10,2.9c-0.7,0.1-1.5,0-2.1-0.4c-1.1-0.7-2.2-1.5-3.2-2.2l-1.6-1.2c-1.2-0.9-2.2-1.5-3.1-2.1l-1.7-1l-2.4,4.2
			l1.7,1c0.4,0.2,1,0.6,1.8,1.2c1.2,0.9,2.9,2.2,4.8,3.8c0.7,0.6,1.2,1.5,1.3,2.5c0.8,8.6,5.5,17.2,3.3,23.4c-0.1,0.2,0.1,0.2,0.2,0
			C206.1,60.5,201.8,53.1,197.5,46.6z"/>
		<path class="st0" d="M183.1,37.6L183.1,37.6c12.2,0.2,20.4,0,24.6-14.8c-0.2-0.1,0,0-0.2-0.2c-5.6,4.1-12.8,3.8-17.4,5.5
			c-2.5,0.9-6.4,3.3-9.5,4.5c-0.7,0.3-1.5,0.2-2.1-0.1c-1.2-0.5-2.4-1.1-3.5-1.7l-1.8-0.9c-1.3-0.7-2.4-1.2-3.3-1.6l-1.8-0.7
			l-1.7,4.5l1.8,0.7c0.5,0.2,1.1,0.5,1.9,0.9c1.3,0.7,3.2,1.7,5.3,3c0.8,0.5,1.4,1.3,1.6,2.2c2.2,8.4,8.2,16.2,6.9,22.6
			c0,0.2,0.1,0.2,0.2,0C193.8,50,188.4,43.4,183.1,37.6z"/>
		<path class="st0" d="M167.6,30.9L167.6,30.9c12.1-1.7,20.2-3.2,22-18.4c-0.2-0.1,0,0-0.3-0.1c-4.9,4.9-12.1,5.8-16.3,8.1
			c-2.3,1.3-5.8,4.3-8.7,5.9c-0.6,0.4-1.4,0.5-2.1,0.3c-1.3-0.3-2.6-0.7-3.7-1.1l-1.9-0.6c-1.4-0.5-2.5-0.8-3.5-1l-1.9-0.4l-1,4.7
			l1.9,0.4c0.5,0.1,1.2,0.3,2,0.6c1.4,0.5,3.4,1.2,5.7,2.1c0.9,0.3,1.6,1.1,2,1.9c3.4,7.9,10.6,14.7,10.4,21.3
			c0,0.2,0.1,0.1,0.2-0.1C180.1,41.5,173.7,35.8,167.6,30.9z"/>
		<path class="st0" d="M151.2,26.8L151.2,26.8c11.7-3.5,19.4-6.4,18.8-21.7c-0.2-0.1,0,0-0.3-0.1c-4,5.6-11,7.6-14.8,10.6
			c-2.1,1.7-5,5.1-7.6,7.2c-0.6,0.5-1.3,0.7-2,0.6c-1.3-0.1-2.7-0.3-3.9-0.5l-2-0.3c-1.5-0.2-2.6-0.4-3.7-0.4l-1.9-0.1l-0.2,4.8
			l1.9,0.1c0.5,0,1.2,0.1,2.1,0.3c1.5,0.2,3.5,0.6,6,1.2c0.9,0.2,1.7,0.8,2.2,1.6c4.6,7.3,12.8,12.9,13.6,19.4
			c0,0.2,0.1,0.1,0.2-0.1C165.1,35.3,157.9,30.7,151.2,26.8z"/>
		<path class="st0" d="M30.2,165.3L30.2,165.3c-8.4-8.8-14.5-14.4-27.8-7c0,0.3,0,0,0.1,0.3c6.8,1,11.8,6.4,16.1,8.4
			c2.4,1.1,6.8,2.2,9.9,3.5c0.7,0.3,1.2,0.9,1.5,1.6c0.5,1.2,0.9,2.5,1.3,3.7l0.6,1.9c0.5,1.4,0.8,2.5,1.3,3.5L34,183l4.4-2
			l-0.8-1.8c-0.2-0.5-0.5-1.1-0.7-2c-0.5-1.4-1-3.4-1.7-5.9c-0.2-0.9-0.1-1.9,0.4-2.7c4.4-7.4,5.7-17.2,11.1-20.9
			c0.2-0.1,0.1-0.2-0.2-0.2C31.4,149,30.6,157.5,30.2,165.3z"/>
		<path class="st0" d="M36.5,181L36.5,181c-9.7-7.4-16.5-12-28.6-2.5c0.1,0.2,0,0,0.1,0.3c6.9-0.1,12.6,4.5,17.3,5.8
			c2.6,0.7,7.1,1.1,10.3,2c0.7,0.2,1.3,0.7,1.7,1.3c0.7,1.1,1.3,2.3,1.9,3.4l0.9,1.8c0.7,1.3,1.2,2.4,1.8,3.2l1.1,1.6l4-2.6
			l-1.1-1.6c-0.3-0.4-0.6-1-1-1.9c-0.7-1.3-1.6-3.2-2.6-5.5c-0.4-0.9-0.4-1.9,0-2.8c3.2-8,2.9-17.9,7.7-22.4c0.1-0.1,0-0.2-0.2-0.1
			C35.2,164.7,35.6,173.2,36.5,181z"/>
		<path class="st0" d="M45.2,195.6L45.2,195.6c-10.7-5.7-18.2-9.2-28.6,2c0.1,0.2,0,0,0.1,0.3c6.8-1.1,13.2,2.4,17.9,3
			c2.7,0.3,7.2-0.1,10.5,0.3c0.7,0.1,1.4,0.5,1.9,1c0.8,1,1.7,2.1,2.4,3.1l1.2,1.6c0.9,1.2,1.6,2.1,2.3,2.9l1.3,1.5l3.6-3.2
			l-1.3-1.4c-0.3-0.4-0.8-0.9-1.3-1.7c-0.9-1.2-2.1-3-3.4-5.1c-0.5-0.8-0.7-1.8-0.4-2.7c1.9-8.4,0.1-18.1,4.1-23.3
			c0.1-0.1,0-0.2-0.2-0.1C41.3,179.6,43.1,188,45.2,195.6z"/>
		<path class="st0" d="M56,208.5L56,208.5c-11.5-4-19.4-6.3-28,6.4c0.2,0.2,0,0,0.2,0.2c6.6-2.2,13.4,0.3,18.2,0.2
			c2.7-0.1,7.1-1.2,10.4-1.3c0.7,0,1.5,0.2,2,0.7c1,0.9,2,1.8,2.8,2.7l1.4,1.4c1,1,1.9,1.9,2.7,2.5l1.5,1.2l3-3.8l-1.5-1.2
			c-0.4-0.3-0.9-0.8-1.6-1.4c-1.1-1.1-2.5-2.6-4.1-4.5c-0.6-0.7-0.9-1.7-0.9-2.6c0.5-8.6-2.8-17.9,0.4-23.6c0.1-0.2,0-0.2-0.2-0.1
			C49.7,193.4,52.8,201.4,56,208.5z"/>
		<path class="st0" d="M30.9,98.6L30.9,98.6c-1.7-12.1-3.2-20.2-18.4-22c-0.1,0.2,0,0-0.1,0.3c4.9,4.9,5.8,12.1,8.1,16.3
			c1.3,2.3,4.3,5.8,5.9,8.7c0.4,0.6,0.4,1.4,0.3,2.1c-0.3,1.3-0.7,2.6-1.1,3.7l-0.6,1.9c-0.5,1.4-0.8,2.5-1,3.5l-0.4,1.9l4.7,1
			l0.4-1.9c0.1-0.5,0.3-1.2,0.6-2c0.5-1.4,1.2-3.4,2.1-5.7c0.3-0.9,1.1-1.6,1.9-2C41.2,101,48,93.8,54.6,94c0.2,0,0.1-0.1-0.1-0.2
			C41.5,86.1,35.8,92.5,30.9,98.6z"/>
		<path class="st0" d="M26.8,115L26.8,115c-3.5-11.7-6.4-19.4-21.7-18.8c-0.1,0.2,0,0-0.1,0.3c5.6,4,7.6,11,10.6,14.8
			c1.7,2.1,5.1,5,7.2,7.6c0.5,0.6,0.7,1.3,0.6,2c-0.1,1.3-0.3,2.7-0.5,3.9l-0.3,2c-0.2,1.5-0.4,2.6-0.4,3.7l-0.1,1.9l4.8,0.2
			l0.1-1.9c0-0.5,0.1-1.2,0.3-2.1c0.2-1.5,0.6-3.5,1.2-6c0.2-0.9,0.8-1.7,1.6-2.2c7.3-4.6,12.9-12.8,19.4-13.6
			c0.2,0,0.1-0.1-0.1-0.2C35.3,101,30.7,108.2,26.8,115z"/>
		<path class="st0" d="M25.3,131.9L25.3,131.9c-5.3-11-9.3-18.2-24.4-15.2c0,0.3,0,0,0,0.3c6.2,3.1,9.2,9.7,12.8,13
			c2,1.8,5.8,4.2,8.3,6.4c0.5,0.5,0.9,1.2,0.9,1.9c0.1,1.3,0.1,2.7,0.1,3.9v2c0,1.5,0,2.7,0.1,3.7l0.2,1.9l4.8-0.5l-0.2-1.9
			c-0.1-0.5-0.1-1.2-0.1-2.1c0-1.5,0.1-3.6,0.2-6.1c0.1-1,0.5-1.8,1.2-2.5c6.5-5.7,10.7-14.6,17-16.4c0.2-0.1,0.1-0.2-0.1-0.2
			C31.5,116.7,28.1,124.6,25.3,131.9z"/>
		<path class="st0" d="M26.4,148.8L26.4,148.8c-7-10-12-16.5-26.4-11.2c0,0.3,0,0,0,0.3c6.6,2.1,10.6,8.1,14.6,10.8
			c2.2,1.5,6.4,3.2,9.2,5c0.6,0.4,1,1,1.2,1.8c0.3,1.3,0.5,2.6,0.7,3.8l0.3,2c0.2,1.5,0.4,2.6,0.7,3.6l0.5,1.9l4.6-1.3l-0.5-1.9
			c-0.1-0.5-0.3-1.2-0.4-2.1c-0.2-1.5-0.5-3.6-0.7-6c-0.1-1,0.2-1.9,0.8-2.6c5.5-6.7,8.3-16.1,14.2-18.9c0.2-0.1,0.1-0.2-0.2-0.2
			C30.2,132.9,28,141.1,26.4,148.8z"/>
		<path class="st0" d="M70.7,45.2L70.7,45.2c5.7-10.7,9.2-18.2-2-28.6c-0.2,0.1,0,0-0.3,0.1c1.1,6.8-2.4,13.2-3,17.9
			c-0.3,2.7,0.1,7.2-0.3,10.5c-0.1,0.7-0.5,1.4-1,1.9c-1,0.8-2.1,1.6-3.1,2.4l-1.6,1.2c-1.2,0.9-2.1,1.6-2.9,2.3L55,54.1l3.2,3.6
			l1.4-1.3c0.4-0.3,0.9-0.8,1.7-1.3c1.2-0.9,3-2.1,5.1-3.4c0.8-0.5,1.8-0.7,2.7-0.4c8.4,1.9,18.1,0.1,23.3,4.1
			c0.1,0.1,0.2,0,0.1-0.2C86.5,41.3,78.2,43.1,70.7,45.2z"/>
		<path class="st0" d="M57.7,56L57.7,56c4-11.5,6.3-19.4-6.4-28c-0.2,0.2,0,0-0.2,0.2c2.2,6.6-0.3,13.4-0.2,18.2
			c0.1,2.7,1.2,7.1,1.3,10.4c0,0.7-0.2,1.5-0.7,2c-0.9,1-1.8,2-2.7,2.8L47.4,63c-1,1-1.9,1.9-2.5,2.7l-1.2,1.5l3.8,3l1.2-1.5
			c0.3-0.4,0.8-0.9,1.4-1.6c1.1-1.1,2.6-2.5,4.5-4.1c0.7-0.6,1.7-0.9,2.6-0.9c8.6,0.5,17.9-2.8,23.6,0.4c0.2,0.1,0.2,0,0.1-0.2
			C72.7,49.7,64.9,52.8,57.7,56z"/>
		<path class="st0" d="M46.6,68.8L46.6,68.8c2.1-12,3.1-20.2-10.7-26.6c-0.2,0.2,0,0-0.2,0.2c3.2,6.1,1.8,13.3,2.7,18
			c0.5,2.6,2.3,6.8,2.9,10c0.1,0.7,0,1.5-0.4,2.1c-0.7,1.1-1.5,2.2-2.2,3.2l-1.2,1.6c-0.9,1.2-1.5,2.2-2.1,3.1l-1,1.7l4.2,2.4l1-1.7
			c0.2-0.4,0.6-1,1.2-1.8c0.9-1.2,2.2-2.9,3.8-4.8c0.6-0.7,1.5-1.2,2.5-1.3c8.6-0.8,17.2-5.5,23.4-3.3c0.2,0.1,0.2-0.1,0-0.2
			C60.5,60.2,53.1,64.5,46.6,68.8z"/>
		<path class="st0" d="M37.6,83L37.6,83c0.2-12.2,0-20.4-14.8-24.6c-0.1,0.2,0,0-0.2,0.2c4.1,5.6,3.8,12.8,5.5,17.4
			c0.9,2.5,3.3,6.4,4.5,9.5c0.3,0.7,0.2,1.5-0.1,2.1c-0.5,1.2-1.1,2.4-1.7,3.5l-0.9,1.8c-0.7,1.3-1.2,2.4-1.6,3.3L27.6,98l4.5,1.7
			l0.7-1.8c0.2-0.5,0.5-1.1,0.9-1.9c0.7-1.3,1.7-3.2,3-5.3c0.5-0.8,1.3-1.4,2.2-1.6c8.4-2.2,16.2-8.2,22.6-6.9c0.2,0,0.2-0.1,0-0.2
			C50,72.4,43.4,77.8,37.6,83z"/>
	</g>
</g>
</svg>
